<svg xmlns="http://www.w3.org/2000/svg" viewBox="0 0 64 64" role="img" aria-labelledby="title">
  <title id="title">Schäfchen</title>
  <rect width="64" height="64" rx="18" fill="#111111"/>
  <circle cx="21" cy="25" r="10" fill="#ffffff"/>
  <circle cx="32" cy="21" r="12" fill="#ffffff"/>
  <circle cx="43" cy="25" r="10" fill="#ffffff"/>
  <ellipse cx="32" cy="36" rx="17" ry="15" fill="#ffffff"/>
  <path d="M21 34 14 30c-2-1-4 1-3 3l4 7c1 2 4 1 6-1m22-5 7-4c2-1 4 1 3 3l-4 7c-1 2-4 1-6-1" fill="#e30613"/>
  <ellipse cx="32" cy="38" rx="11" ry="10" fill="#e7e7e7"/>
  <circle cx="27.5" cy="35.5" r="1.7" fill="#111111"/>
  <circle cx="36.5" cy="35.5" r="1.7" fill="#111111"/>
  <path d="M29 42c2 1.8 4 1.8 6 0" fill="none" stroke="#111111" stroke-linecap="round" stroke-width="2"/>
</svg>
